Coordinates
version=1
nRows=6
nColumns=36
inDegrees=yes

Units are S.I. units (second, meters, Newtons, ...)
If the header above contains a line with 'inDegrees', this indicates whether rotational values are in degrees (yes) or radians (no).

endheader
time	pelvis_tilt	pelvis_list	pelvis_rotation	pelvis_tx	pelvis_ty	pelvis_tz	hip_flexion_r	hip_adduction_r	hip_rotation_r	knee_angle_r	knee_angle_r_beta	ankle_angle_r	subtalar_angle_r	mtp_angle_r	hip_flexion_l	hip_adduction_l	hip_rotation_l	knee_angle_l	knee_angle_l_beta	ankle_angle_l	subtalar_angle_l	mtp_angle_l	lumbar_extension	lumbar_bending	lumbar_rotation	arm_flex_r	arm_add_r	arm_rot_r	elbow_flex_r	pro_sup_r	arm_flex_l	arm_add_l	arm_rot_l	elbow_flex_l	pro_sup_l
      7.35000000	    -13.46673615	      1.63621730	     -4.49789017	      0.63937024	      1.33150405	     -0.10313416	     11.27266709	     -8.07972871	     -2.95753693	      3.92946103	      0.06858203	    -21.88855733	    -14.55323037	     -7.49999987	     12.41796892	     -3.49074575	      5.17161783	     11.54999390	      0.20158542	    -22.53813594	    -11.43089003	     -7.49999987	     -6.47649207	      6.70071485	     -3.14177936	    -12.61452890	    -13.23610644	      8.14837552	     47.85416115	     84.08423653	    -25.41075842	    -14.74470100	     -0.09207168	    115.40140065	    105.29866160
      7.36666670	    -13.53800605	      1.79953723	     -4.37755704	      0.64132421	      1.33955771	     -0.10479641	     11.21308288	     -8.22485461	     -2.32584036	      2.87950721	      0.05025688	    -20.40099858	    -15.24564695	     -7.49999987	     12.89774678	     -3.55562863	      5.78037606	      9.61644955	      0.16783871	    -20.46285117	    -12.11803986	     -7.49999987	     -6.81910192	      6.37381665	     -2.81455505	    -10.15198682	    -11.06460426	      5.75755327	     46.07880691	     83.19887658	    -23.31949650	    -14.43490117	      0.89783496	    114.94974533	    103.82467844
      7.38333330	    -13.64251900	      1.92871191	     -4.05112857	      0.64103443	      1.33929680	     -0.10508264	     11.27588734	     -8.35738296	     -2.38267969	      2.36310276	      0.04124392	    -18.83231957	    -15.14131670	     -7.49999987	     13.71417746	     -3.58663561	      5.78903247	      8.07232572	      0.14088866	    -19.09961848	    -13.18484505	     -7.49999987	     -7.37373449	      6.02634585	     -2.87168362	     -7.92757448	    -10.33515386	      4.43409663	     47.29215311	     90.54288120	    -22.21118574	    -14.27248197	      0.76161281	    116.24503105	    107.34511727
      7.40000000	    -13.78765654	      2.06737837	     -3.84810882	      0.63723401	      1.34223628	     -0.10779693	     11.64181195	     -8.43372328	     -2.26606500	      2.29212128	      0.04000506	    -18.37614642	    -15.33674002	     -7.49999987	     14.65151389	     -3.55629530	      5.07725556	      6.74760524	      0.11776793	    -18.54988659	    -13.95142294	     -7.49999987	     -7.96794587	      5.77901158	     -2.80488291	     -6.05198797	     -9.97496822	      4.07228464	     50.31982628	     93.08680758	    -20.75326862	    -14.20768293	      0.59449775	    117.35506407	    107.31478099
      7.41666670	    -13.94897786	      1.99031636	     -3.75316735	      0.63412004	      1.33990699	     -0.10599692	     12.21188024	     -8.07904025	     -2.16866285	      2.37250211	      0.04140797	    -18.88958019	    -15.90083308	     -7.49999987	     15.63003987	     -3.79972114	      4.68983777	      5.50524964	      0.09608473	    -18.30908973	    -14.16133008	     -7.49999987	     -8.75219777	      5.75071061	     -2.38602538	     -4.68871548	    -10.29454938	      5.57151153	     53.96416102	     92.10904169	    -19.03196378	    -14.24305008	      0.66424047	    118.66852059	    105.78988317
      7.43333330	    -14.02608410	      2.06052531	     -3.73765085	      0.63814441	      1.33517160	     -0.10777611	     12.59834513	     -8.00115120	     -2.39446669	      2.43157571	      0.04243900	    -19.97073534	    -15.77840006	     -7.49999987	     16.48911949	     -3.87656953	      4.17806480	      4.65178867	      0.08118903	    -18.62645635	    -13.78777095	     -7.49999987	     -9.26961217	      5.48060994	     -2.73743705	     -2.57505277	    -11.42104667	     10.09260256	     56.52647902	     94.13498619	    -18.85704847	    -13.95447691	      0.02127744	    120.64228445	    107.19405376
